# This file uses centimeters as units for non-parametric coordinates.

mtllib Base_for_Wood.mtl
g default
v -1.437329 0.921388 2.309405
v 1.437329 0.921388 2.309405
v -1.437329 0.921388 -1.744231
v 1.437329 0.921388 -1.744231
v -1.773772 0.395499 2.783832
v 1.773772 0.395499 2.783832
v 1.773772 0.976488 2.783832
v -1.773772 0.976488 2.783832
v -1.773772 0.976488 -2.218659
v 1.773772 0.976488 -2.218659
v 1.773772 0.395499 -2.218659
v -1.773772 0.395499 -2.218659
v -1.437329 1.533629 2.309405
v 1.437329 1.533629 2.309405
v -1.773772 1.334421 2.783832
v 1.773772 1.334421 2.783832
v -1.437329 1.533629 -1.744231
v 1.437329 1.533629 -1.744231
v 1.773772 1.334421 -2.218659
v -1.773772 1.334421 -2.218659
vt 0.001857 0.001992
vt 0.260438 0.001992
vt 0.260438 0.260573
vt 0.001857 0.260573
vt 0.001857 0.788474
vt 0.211392 0.788474
vt 0.211392 0.998008
vt 0.001857 0.998008
vt 0.267347 0.249959
vt 0.525928 0.249959
vt 0.525928 0.508540
vt 0.267347 0.508540
vt 0.532655 0.001992
vt 0.791236 0.001992
vt 0.791236 0.260573
vt 0.532655 0.260573
vt 0.235915 0.508540
vt 0.026381 0.508540
vt 0.001857 0.419878
vt 0.260438 0.419878
vt 0.291870 0.001992
vt 0.501404 0.001992
vt 0.525928 0.090654
vt 0.267347 0.090654
vt 0.766712 0.508540
vt 0.557178 0.508540
vt 0.532655 0.419878
vt 0.791236 0.419878
vt 0.930529 0.784752
vt 0.720995 0.784752
vt 0.720995 0.512262
vt 0.930529 0.512262
vt 0.505740 0.512262
vt 0.715274 0.512262
vt 0.715274 0.784752
vt 0.505740 0.784752
vt 0.290485 0.512262
vt 0.500020 0.512262
vt 0.500020 0.784752
vt 0.290485 0.784752
vt 0.075231 0.512262
vt 0.284765 0.512262
vt 0.284765 0.784752
vt 0.075231 0.784752
vn 0.000000 0.000000 1.000000
vn 0.000000 0.000000 1.000000
vn 0.000000 0.000000 1.000000
vn 0.000000 0.000000 1.000000
vn 0.000000 1.000000 0.000000
vn 0.000000 1.000000 0.000000
vn 0.000000 1.000000 0.000000
vn 0.000000 1.000000 0.000000
vn 0.000000 0.000000 -1.000000
vn 0.000000 0.000000 -1.000000
vn 0.000000 0.000000 -1.000000
vn 0.000000 0.000000 -1.000000
vn 1.000000 0.000000 0.000000
vn 1.000000 0.000000 0.000000
vn 1.000000 0.000000 0.000000
vn 1.000000 0.000000 0.000000
vn 0.000000 0.922018 0.387148
vn 0.000000 0.922018 0.387148
vn 0.000000 0.922018 0.387148
vn 0.000000 0.922018 0.387148
vn 0.000000 0.922018 -0.387147
vn 0.000000 0.922018 -0.387147
vn 0.000000 0.922018 -0.387147
vn 0.000000 0.922018 -0.387147
vn 0.509489 0.860477 0.000000
vn 0.509489 0.860477 0.000000
vn 0.509489 0.860477 0.000000
vn 0.509489 0.860477 0.000000
vn 0.000000 0.000000 -1.000000
vn 0.000000 0.000000 -1.000000
vn 0.000000 0.000000 -1.000000
vn 0.000000 0.000000 -1.000000
vn 0.000000 0.000000 1.000000
vn 0.000000 0.000000 1.000000
vn 0.000000 0.000000 1.000000
vn 0.000000 0.000000 1.000000
vn 0.000000 0.000000 1.000000
vn 0.000000 0.000000 1.000000
vn 0.000000 0.000000 1.000000
vn 0.000000 0.000000 1.000000
vn 0.000000 0.000000 -1.000000
vn 0.000000 0.000000 -1.000000
vn 0.000000 0.000000 -1.000000
vn 0.000000 0.000000 -1.000000
vn -1.000000 0.000000 0.000000
vn -1.000000 0.000000 0.000000
vn -1.000000 0.000000 0.000000
vn -1.000000 0.000000 0.000000
vn 1.000000 0.000000 0.000000
vn 1.000000 0.000000 0.000000
vn 1.000000 0.000000 0.000000
vn 1.000000 0.000000 0.000000
vn 1.000000 0.000000 0.000000
vn 1.000000 0.000000 0.000000
vn 1.000000 0.000000 0.000000
vn 1.000000 0.000000 0.000000
s off
g B1:pCube4
usemtl B1:initialShadingGroup
f 5/1/1 6/2/2 7/3/3 8/4/4
f 1/5/5 2/6/6 4/7/7 3/8/8
f 9/9/9 10/10/10 11/11/11 12/12/12
f 6/13/13 11/14/14 10/15/15 7/16/16
f 14/17/17 13/18/18 15/19/19 16/20/20
f 17/21/21 18/22/22 19/23/23 20/24/24
f 18/25/25 14/26/26 16/27/27 19/28/28
f 2/29/29 1/30/30 13/31/31 14/32/32
f 8/4/33 7/3/34 16/20/35 15/19/36
f 3/33/37 4/34/38 18/35/39 17/36/40
f 10/10/41 9/9/42 20/24/43 19/23/44
f 4/37/45 2/38/46 14/39/47 18/40/48
f 7/16/49 10/15/50 19/28/51 16/27/52
f 1/41/53 3/42/54 17/43/55 13/44/56
