# author: headus 3D tools
#  using: ply2obj v1.12
#   from: uvlayout v2.11.02b
# 16 vertices
v -19.447315 0.000000 19.447315
v -6.482440 0.000000 19.447315
v 6.482435 0.000000 19.447315
v 19.447313 0.000000 19.447315
v -19.447315 0.000000 6.482440
v -6.482440 0.000000 6.482440
v 6.482435 0.000000 6.482440
v 19.447313 0.000000 6.482440
v -19.447315 0.000000 -6.482435
v -6.482440 0.000000 -6.482435
v 6.482435 0.000000 -6.482435
v 19.447313 0.000000 -6.482435
v -19.447315 0.000000 -19.447313
v -6.482440 0.000000 -19.447313
v 6.482435 0.000000 -19.447313
v 19.447313 0.000000 -19.447313
# 16 normals
vn 0.000000 1.000000 0.000000
vn 0.000000 1.000000 0.000000
vn 0.000000 1.000000 0.000000
vn 0.000000 1.000000 0.000000
vn 0.000000 1.000000 0.000000
vn 0.000000 1.000000 0.000000
vn 0.000000 1.000000 0.000000
vn 0.000000 1.000000 0.000000
vn 0.000000 1.000000 0.000000
vn 0.000000 1.000000 0.000000
vn 0.000000 1.000000 0.000000
vn 0.000000 1.000000 0.000000
vn 0.000000 1.000000 0.000000
vn 0.000000 1.000000 0.000000
vn 0.000000 1.000000 0.000000
vn 0.000000 1.000000 0.000000
# 36 uv coords
vt 0.986466 0.986466
vt 0.007693 0.986466
vt 0.007693 0.007693
vt 0.986466 0.007693
vt 1.986466 0.986466
vt 1.007693 0.986466
vt 1.007693 0.007693
vt 1.986466 0.007693
vt 2.986469 0.986466
vt 2.007696 0.986466
vt 2.007696 0.007693
vt 2.986469 0.007693
vt 0.986466 1.986466
vt 0.007693 1.986466
vt 0.007693 1.007693
vt 0.986466 1.007693
vt 1.986466 1.986466
vt 1.007693 1.986466
vt 1.007693 1.007693
vt 1.986466 1.007693
vt 2.986469 1.986466
vt 2.007696 1.986466
vt 2.007696 1.007693
vt 2.986469 1.007693
vt 0.986466 2.986469
vt 0.007693 2.986469
vt 0.007693 2.007696
vt 0.986466 2.007696
vt 1.986466 2.986469
vt 1.007693 2.986469
vt 1.007693 2.007696
vt 1.986466 2.007696
vt 2.986469 2.986469
vt 2.007696 2.986469
vt 2.007696 2.007696
vt 2.986469 2.007696
# 9 polygons
usemtl initialShadingGroup
s 1
g pPlane1
f 1/25/1 2/26/2 6/27/3 5/28/4
f 2/33/2 3/34/5 7/35/6 6/36/3
f 3/29/5 4/30/7 8/31/8 7/32/6
f 5/21/4 6/22/3 10/23/9 9/24/10
f 6/13/3 7/14/6 11/15/11 10/16/9
f 7/17/6 8/18/8 12/19/12 11/20/11
f 9/9/10 10/10/9 14/11/13 13/12/14
f 10/5/9 11/6/11 15/7/15 14/8/13
f 11/1/11 12/2/12 16/3/16 15/4/15
# h3dt: 16 36 16 9
