# This file uses centimeters as units for non-parametric coordinates.

mtllib Mattress.mtl
g default
v -1.239986 1.230284 1.403582
v 2.015893 1.230284 1.403582
v -1.100946 1.786170 1.243775
v 1.876854 1.786170 1.243775
v -1.100946 1.786170 -1.223999
v 1.876854 1.786170 -1.223999
v -1.239986 1.230284 -1.383806
v 2.015893 1.230284 -1.383806
v 2.015893 1.283971 -1.395184
v -1.239986 1.283971 -1.395184
v -1.239986 1.283971 1.414959
v 2.015893 1.283971 1.414959
v 2.015893 1.337657 -1.403320
v -1.239986 1.337657 -1.403320
v -1.239986 1.337657 1.423095
v 2.015893 1.337657 1.423095
v 2.015893 1.391344 -1.409189
v -1.239986 1.391344 -1.409189
v -1.239986 1.391344 1.428965
v 2.015893 1.391344 1.428965
v 2.015893 1.445031 -1.410294
v -1.239986 1.445031 -1.410294
v -1.239986 1.445031 1.430069
v 2.015893 1.445031 1.430069
v 2.015893 1.498717 -1.407203
v -1.239986 1.498717 -1.407203
v -1.239986 1.498717 1.426979
v 2.015893 1.498717 1.426979
v 2.015893 1.552404 -1.402303
v -1.239986 1.552404 -1.402303
v -1.239986 1.552404 1.422079
v 2.015893 1.552404 1.422079
v 2.015893 1.618477 -1.396151
v -1.239986 1.618477 -1.396151
v -1.239986 1.618477 1.415927
v 2.015893 1.618477 1.415927
v 2.005331 1.675243 -1.378375
v -1.229424 1.675243 -1.378375
v -1.229424 1.659777 1.398151
v 2.005331 1.659777 1.398151
v 1.987862 1.717735 -1.353211
v -1.211955 1.717735 -1.353211
v -1.211955 1.717735 1.372986
v 1.987862 1.717735 1.372986
v 1.938757 1.758321 -1.300714
v -1.162849 1.758321 -1.300714
v -1.162849 1.758321 1.320489
v 1.938757 1.758321 1.320489
v -1.026675 1.801155 1.145015
v 1.802583 1.801155 1.145015
v 1.802583 1.801155 -1.125239
v -1.026675 1.801155 -1.125239
vt 0.517101 0.987830
vt 0.517101 0.513652
vt 0.528830 0.523116
vt 0.528830 0.978366
vt 0.543928 0.967012
vt 0.543928 0.534470
vt 0.891008 0.534470
vt 0.891008 0.967012
vt 0.906106 0.978366
vt 0.906106 0.523116
vt 0.917835 0.513652
vt 0.917835 0.987830
vt 0.001856 0.499756
vt 0.001856 0.001992
vt 0.427996 0.001992
vt 0.427996 0.499756
vt 0.493962 0.499756
vt 0.493962 0.001992
vt 0.502170 0.001992
vt 0.502170 0.499756
vt 0.422633 0.933663
vt 0.422633 0.507523
vt 0.430841 0.505784
vt 0.430841 0.935403
vt 0.508582 0.499756
vt 0.508582 0.001992
vt 0.516790 0.001992
vt 0.516790 0.499756
vt 0.336190 0.933663
vt 0.336190 0.507523
vt 0.344398 0.505784
vt 0.344398 0.935403
vt 0.485754 0.499756
vt 0.485754 0.001992
vt 0.439048 0.504540
vt 0.439048 0.936647
vt 0.524997 0.001992
vt 0.524997 0.499756
vt 0.352606 0.504540
vt 0.352606 0.936647
vt 0.477546 0.499756
vt 0.477546 0.001992
vt 0.447256 0.503643
vt 0.447256 0.937544
vt 0.533205 0.001992
vt 0.533205 0.499756
vt 0.360814 0.503643
vt 0.360814 0.937544
vt 0.469339 0.499756
vt 0.469339 0.001992
vt 0.455464 0.503474
vt 0.455464 0.937713
vt 0.541413 0.001992
vt 0.541413 0.499756
vt 0.369021 0.503474
vt 0.369021 0.937713
vt 0.461131 0.499756
vt 0.461131 0.001992
vt 0.463671 0.503946
vt 0.463671 0.937240
vt 0.549621 0.001992
vt 0.549621 0.499756
vt 0.377229 0.503946
vt 0.377229 0.937240
vt 0.452923 0.499756
vt 0.452923 0.001992
vt 0.471879 0.504696
vt 0.471879 0.936491
vt 0.557828 0.001992
vt 0.557828 0.499756
vt 0.385437 0.504695
vt 0.385437 0.936491
vt 0.442822 0.499756
vt 0.442822 0.001992
vt 0.481980 0.505636
vt 0.481980 0.935551
vt 0.567930 0.001992
vt 0.567930 0.499756
vt 0.395538 0.505636
vt 0.395538 0.935551
vt 0.434144 0.498141
vt 0.434144 0.003607
vt 0.488295 0.508354
vt 0.490659 0.932833
vt 0.574244 0.003607
vt 0.574244 0.498141
vt 0.404216 0.508354
vt 0.401852 0.932833
vt 0.925861 0.995337
vt 0.925861 0.506145
vt 0.929708 0.503474
vt 0.929708 0.998008
vt 0.497155 0.512201
vt 0.497155 0.928986
vt 0.583104 0.006277
vt 0.583104 0.495470
vt 0.410713 0.512201
vt 0.410713 0.928986
vt 0.503360 0.520227
vt 0.503360 0.920960
vt 0.509076 0.995337
vt 0.509076 0.506145
vt 0.416918 0.520227
vt 0.416918 0.920960
vn 0.000000 0.849460 0.527654
vn 0.000000 0.849460 0.527654
vn 0.000000 0.939982 0.341223
vn 0.000000 0.939982 0.341223
vn 0.000000 1.000000 0.000000
vn 0.000000 1.000000 0.000000
vn 0.000000 1.000000 0.000000
vn 0.000000 1.000000 0.000000
vn 0.000000 0.939982 -0.341223
vn 0.000000 0.939982 -0.341223
vn 0.000000 0.849460 -0.527654
vn 0.000000 0.849460 -0.527654
vn 0.000000 -1.000000 0.000000
vn 0.000000 -1.000000 0.000000
vn 0.000000 -1.000000 0.000000
vn 0.000000 -1.000000 0.000000
vn 0.585329 0.810796 0.000000
vn 0.585329 0.810796 0.000000
vn 0.410265 0.911966 0.000000
vn 0.410265 0.911966 0.000000
vn -0.585329 0.810796 0.000000
vn -0.585329 0.810796 0.000000
vn -0.410265 0.911966 0.000000
vn -0.410265 0.911966 0.000000
vn 0.000000 -0.178806 -0.983884
vn 0.000000 -0.178806 -0.983884
vn 0.000000 -0.207319 -0.978273
vn 0.000000 -0.207319 -0.978273
vn -1.000000 0.000000 0.000000
vn -1.000000 0.000000 0.000000
vn -1.000000 0.000001 0.000000
vn -1.000000 0.000001 0.000000
vn 0.000000 -0.207319 0.978273
vn 0.000000 -0.207319 0.978273
vn 0.000000 -0.178806 0.983884
vn 0.000000 -0.178806 0.983884
vn 1.000000 0.000000 0.000000
vn 1.000000 0.000000 0.000000
vn 1.000000 0.000001 0.000000
vn 1.000000 0.000001 0.000000
vn 0.000000 -0.129340 -0.991600
vn 0.000000 -0.129340 -0.991600
vn 0.000000 -0.178806 -0.983884
vn 0.000000 -0.178806 -0.983884
vn -1.000000 0.000001 0.000000
vn -1.000000 0.000001 0.000000
vn -1.000000 0.000001 0.000000
vn -1.000000 0.000001 0.000000
vn 0.000000 -0.178806 0.983884
vn 0.000000 -0.178806 0.983884
vn 0.000000 -0.129340 0.991600
vn 0.000000 -0.129340 0.991600
vn 1.000000 0.000001 0.000000
vn 1.000000 0.000001 0.000000
vn 1.000000 0.000001 0.000000
vn 1.000000 0.000001 0.000000
vn 0.000000 -0.064813 -0.997898
vn 0.000000 -0.064813 -0.997898
vn 0.000000 -0.129340 -0.991600
vn 0.000000 -0.129340 -0.991600
vn -1.000000 0.000001 0.000000
vn -1.000000 0.000001 0.000000
vn -1.000000 0.000000 0.000000
vn -1.000000 0.000000 0.000000
vn 0.000000 -0.129340 0.991600
vn 0.000000 -0.129340 0.991600
vn 0.000000 -0.064813 0.997898
vn 0.000000 -0.064813 0.997898
vn 1.000000 0.000001 0.000000
vn 1.000000 0.000001 0.000000
vn 1.000000 0.000000 0.000000
vn 1.000000 0.000000 0.000000
vn 0.000000 0.018488 -0.999829
vn 0.000000 0.018488 -0.999829
vn 0.000000 -0.064813 -0.997898
vn 0.000000 -0.064813 -0.997898
vn -1.000000 0.000000 0.000000
vn -1.000000 0.000000 0.000000
vn -1.000000 -0.000001 0.000000
vn -1.000000 -0.000001 0.000000
vn 0.000000 -0.064813 0.997898
vn 0.000000 -0.064813 0.997898
vn 0.000000 0.018488 0.999829
vn 0.000000 0.018488 0.999829
vn 1.000000 0.000000 0.000000
vn 1.000000 0.000000 0.000000
vn 1.000000 -0.000001 0.000000
vn 1.000000 -0.000001 0.000000
vn 0.000000 0.074210 -0.997243
vn 0.000000 0.074210 -0.997243
vn 0.000000 0.018488 -0.999829
vn 0.000000 0.018488 -0.999829
vn -1.000000 -0.000001 0.000000
vn -1.000000 -0.000001 0.000000
vn -1.000000 -0.000002 0.000000
vn -1.000000 -0.000002 0.000000
vn 0.000000 0.018488 0.999829
vn 0.000000 0.018488 0.999829
vn 0.000000 0.074210 0.997243
vn 0.000000 0.074210 0.997243
vn 1.000000 -0.000001 0.000000
vn 1.000000 -0.000001 0.000000
vn 1.000000 -0.000002 0.000000
vn 1.000000 -0.000002 0.000000
vn 0.000000 0.091894 -0.995769
vn 0.000000 0.091894 -0.995769
vn 0.000000 0.074210 -0.997243
vn 0.000000 0.074210 -0.997243
vn -1.000000 -0.000002 0.000000
vn -1.000000 -0.000002 0.000000
vn -1.000000 0.000000 0.000000
vn -1.000000 0.000000 0.000000
vn 0.000000 0.074210 0.997243
vn 0.000000 0.074210 0.997243
vn 0.000000 0.091894 0.995769
vn 0.000000 0.091894 0.995769
vn 1.000000 -0.000002 0.000000
vn 1.000000 -0.000002 0.000000
vn 1.000000 -0.000000 0.000000
vn 1.000000 -0.000000 0.000000
vn 0.000000 0.184921 -0.982753
vn 0.000000 0.184921 -0.982753
vn 0.000000 0.091894 -0.995769
vn 0.000000 0.091894 -0.995769
vn -1.000000 0.000000 0.000000
vn -1.000000 0.000000 0.000000
vn -0.997296 0.073494 0.000203
vn -0.997006 0.077329 0.000214
vn 0.000000 0.091894 0.995769
vn 0.000000 0.091894 0.995769
vn 0.000000 0.205681 0.978619
vn 0.000000 0.205681 0.978619
vn 1.000000 -0.000000 0.000000
vn 1.000000 -0.000000 0.000000
vn 0.997006 0.077329 0.000214
vn 0.997296 0.073494 0.000203
vn 0.000000 0.378544 -0.925583
vn 0.000000 0.378544 -0.925583
vn 0.000000 0.184921 -0.982753
vn 0.000000 0.184921 -0.982753
vn -0.997006 0.077329 0.000214
vn -0.997296 0.073494 0.000203
vn -0.966628 0.256183 0.000714
vn -0.966851 0.255342 0.000712
vn 0.000000 0.205681 0.978619
vn 0.000000 0.205681 0.978619
vn 0.000000 0.396816 0.917898
vn 0.000000 0.396816 0.917898
vn 0.997296 0.073494 0.000203
vn 0.997006 0.077329 0.000214
vn 0.966851 0.255342 0.000712
vn 0.966628 0.256183 0.000714
vn 0.000000 0.630450 -0.776230
vn 0.000000 0.630450 -0.776230
vn 0.000000 0.378544 -0.925583
vn 0.000000 0.378544 -0.925583
vn -0.966851 0.255342 0.000712
vn -0.966628 0.256183 0.000714
vn -0.867869 0.496792 0.000627
vn -0.871120 0.491070 0.000638
vn 0.000000 0.396816 0.917898
vn 0.000000 0.396816 0.917898
vn 0.000000 0.548492 0.836156
vn 0.000000 0.548492 0.836156
vn 0.966628 0.256183 0.000714
vn 0.966851 0.255342 0.000712
vn 0.871120 0.491070 0.000638
vn 0.867869 0.496792 0.000627
vn 0.000000 0.849460 -0.527654
vn 0.000000 0.849460 -0.527654
vn 0.000000 0.630450 -0.776230
vn 0.000000 0.630450 -0.776230
vn -0.871120 0.491070 0.000638
vn -0.867869 0.496792 0.000627
vn -0.585329 0.810796 0.000000
vn -0.585329 0.810796 0.000000
vn 0.000000 0.548492 0.836156
vn 0.000000 0.548492 0.836156
vn 0.000000 0.849460 0.527654
vn 0.000000 0.849460 0.527654
vn 0.867869 0.496792 0.000627
vn 0.871120 0.491070 0.000638
vn 0.585329 0.810796 0.000000
vn 0.585329 0.810796 0.000000
vn 0.000000 0.988683 0.150022
vn 0.000000 0.988683 0.150022
vn 0.000000 0.988683 0.150022
vn 0.000000 0.988683 0.150022
vn 0.197784 0.980246 0.000000
vn 0.197784 0.980246 0.000000
vn 0.197784 0.980246 0.000000
vn 0.197784 0.980246 0.000000
vn 0.000000 0.988683 -0.150022
vn 0.000000 0.988683 -0.150022
vn 0.000000 0.988683 -0.150022
vn 0.000000 0.988683 -0.150022
vn -0.197784 0.980246 0.000000
vn -0.197784 0.980246 0.000000
vn -0.197784 0.980246 0.000000
vn -0.197784 0.980246 0.000000
s off
g Madrass:pCube8
usemtl Madrass:initialShadingGroup
f 47/1/1 48/2/2 4/3/3 3/4/4
f 49/5/5 50/6/6 51/7/7 52/8/8
f 5/9/9 6/10/10 45/11/11 46/12/12
f 7/13/13 8/14/14 2/15/15 1/16/16
f 48/2/17 45/11/18 6/10/19 4/3/20
f 46/12/21 47/1/22 3/4/23 5/9/24
f 10/17/25 9/18/26 8/19/27 7/20/28
f 7/21/29 1/22/30 11/23/31 10/24/32
f 1/25/33 2/26/34 12/27/35 11/28/36
f 2/29/37 8/30/38 9/31/39 12/32/40
f 14/33/41 13/34/42 9/18/43 10/17/44
f 10/24/45 11/23/46 15/35/47 14/36/48
f 11/28/49 12/27/50 16/37/51 15/38/52
f 12/32/53 9/31/54 13/39/55 16/40/56
f 18/41/57 17/42/58 13/34/59 14/33/60
f 14/36/61 15/35/62 19/43/63 18/44/64
f 15/38/65 16/37/66 20/45/67 19/46/68
f 16/40/69 13/39/70 17/47/71 20/48/72
f 22/49/73 21/50/74 17/42/75 18/41/76
f 18/44/77 19/43/78 23/51/79 22/52/80
f 19/46/81 20/45/82 24/53/83 23/54/84
f 20/48/85 17/47/86 21/55/87 24/56/88
f 26/57/89 25/58/90 21/50/91 22/49/92
f 22/52/93 23/51/94 27/59/95 26/60/96
f 23/54/97 24/53/98 28/61/99 27/62/100
f 24/56/101 21/55/102 25/63/103 28/64/104
f 30/65/105 29/66/106 25/58/107 26/57/108
f 26/60/109 27/59/110 31/67/111 30/68/112
f 27/62/113 28/61/114 32/69/115 31/70/116
f 28/64/117 25/63/118 29/71/119 32/72/120
f 34/73/121 33/74/122 29/66/123 30/65/124
f 30/68/125 31/67/126 35/75/127 34/76/128
f 31/70/129 32/69/130 36/77/131 35/78/132
f 32/72/133 29/71/134 33/79/135 36/80/136
f 38/81/137 37/82/138 33/74/139 34/73/140
f 34/76/141 35/75/142 39/83/143 38/84/144
f 35/78/145 36/77/146 40/85/147 39/86/148
f 36/80/149 33/79/150 37/87/151 40/88/152
f 42/89/153 41/90/154 37/91/155 38/92/156
f 38/84/157 39/83/158 43/93/159 42/94/160
f 39/86/161 40/85/162 44/95/163 43/96/164
f 40/88/165 37/87/166 41/97/167 44/98/168
f 46/12/169 45/11/170 41/90/171 42/89/172
f 42/94/173 43/93/174 47/99/175 46/100/176
f 43/101/177 44/102/178 48/2/179 47/1/180
f 44/98/181 41/97/182 45/103/183 48/104/184
f 3/4/185 4/3/186 50/6/187 49/5/188
f 4/3/189 6/10/190 51/7/191 50/6/192
f 6/10/193 5/9/194 52/8/195 51/7/196
f 5/9/197 3/4/198 49/5/199 52/8/200
