# author: headus 3D tools
#  using: ply2obj v1.12
#   from: uvlayout v2.11.02b
# 64 vertices
v -49.10289 -0.20498 47.34753
v 0.61331 -0.09323 47.99204
v -47.55525 1.58352 -2.88496
v -0.00001 -0.24559 97.14350
v -98.96862 -0.24559 -1.82512
v -96.29082 -0.24559 -53.98723
v -98.94871 -0.51873 47.55029
v -49.48431 -0.24559 97.14350
v 98.96863 -0.24559 47.65919
v 98.96863 -0.24559 -1.82512
v 57.01958 -0.24559 -1.82512
v -49.48431 -0.24559 -100.79374
v -0.00001 -0.24559 -100.79374
v -0.00001 -0.24559 -1.82512
v -78.04487 2.55458 -3.56691
v -81.66990 -0.49266 47.56315
v -81.75400 -0.24559 -68.52404
v -66.53332 0.00614 -1.82512
v -66.46790 -0.69796 47.67227
v -74.60139 -0.61396 71.97448
v -66.53331 -0.24559 -83.74474
v -33.87837 0.31752 47.20233
v -34.57851 -0.47017 -1.71620
v -34.43752 -0.24559 97.14350
v -34.43752 -0.24559 -100.79374
v -15.97278 -0.25141 48.08012
v -16.04359 0.05949 -1.97348
v -16.23886 -0.24559 97.14350
v -16.23886 -0.24559 -100.79374
v -48.79729 0.24115 22.25265
v 0.36492 0.68247 22.39309
v -98.94873 -0.01860 22.55077
v 98.96863 0.25669 22.65965
v -82.49777 0.71467 22.31587
v -65.96341 0.27529 22.32202
v -34.57851 -0.84357 22.76857
v -15.67010 0.70761 22.23848
v 0.00167 -0.32289 71.99346
v -49.27846 0.02103 71.60708
v -66.29147 -0.10421 71.66848
v -34.43752 -0.57065 71.96148
v -16.23886 -0.24559 71.96148
v 74.66638 -0.24559 71.96148
v 42.17206 -0.24559 47.65919
v 42.17206 -0.24559 97.14352
v 42.17206 -0.24559 -1.82512
v 42.60693 -0.91194 22.65652
v 42.17206 -0.24559 71.96148
v 57.09520 0.24170 47.75014
v 57.01958 -0.24559 89.60828
v 57.83279 -1.22355 22.83723
v 57.01958 -0.24559 71.96148
v 75.99240 0.26063 47.75055
v 75.91645 -0.24559 -1.82512
v 77.01034 1.55373 22.13162
v 93.12608 -0.24559 47.65919
v 93.12608 0.88344 22.65965
v -49.07531 0.71509 -18.93460
v -98.96862 -0.24559 -18.69092
v -0.00001 -0.24559 -18.69091
v -81.75400 -0.24559 -18.69091
v -65.99415 0.90617 -19.04945
v -34.36918 0.38601 -18.91697
v -18.07142 -1.79630 -17.71427
# 64 normals
vn -0.025026 0.999268 -0.025545
vn -0.081975 0.995544 -0.044772
vn -0.010560 0.999939 0.002564
vn -0.032320 0.999237 -0.017854
vn 0.011658 0.999847 -0.011719
vn 0.018586 0.999664 0.016145
vn 0.018190 0.999756 0.011689
vn 0.031527 0.999420 -0.006073
vn 0.034579 0.998749 -0.035433
vn 0.029482 0.998047 -0.053562
vn -0.017579 0.999145 -0.035372
vn -0.006897 0.999939 -0.007630
vn 0.031893 0.999359 -0.009614
vn -0.043734 0.999023 -0.001434
vn -0.044894 0.998932 0.008790
vn 0.008912 0.999908 0.007508
vn 0.008698 0.999939 0.005036
vn -0.003144 0.999908 0.012147
vn -0.000549 0.999634 0.026857
vn -0.015138 0.999725 0.016053
vn -0.011201 0.999908 0.002289
vn -0.020356 0.999786 0.000305
vn 0.019014 0.999573 0.021974
vn -0.009156 0.999390 0.030886
vn 0.028688 0.998932 0.035616
vn -0.012543 0.999878 0.006348
vn -0.008332 0.999939 0.002319
vn 0.033602 0.999023 0.028505
vn -0.024385 0.999451 -0.019014
vn 0.009766 0.999908 0.006653
vn -0.003082 0.999969 0.000794
vn -0.000336 0.999878 0.013703
vn -0.001282 0.999969 0.004181
vn 0.003632 0.999969 0.003235
vn -0.000732 0.999969 0.003479
vn 0.006531 0.999969 0.001038
vn 0.006928 0.999817 -0.016908
vn 0.000000 0.999969 0.001221
vn 0.009247 0.999878 0.010193
vn 0.016511 0.999847 0.004486
vn 0.005432 0.999969 -0.004425
vn 0.038180 0.998932 0.024782
vn 0.032442 0.999084 0.024629
vn -0.002106 0.999969 0.002411
vn 0.006165 0.999939 -0.005005
vn -0.005036 0.999908 0.011689
vn -0.004731 0.999939 0.009858
vn -0.000671 0.999969 -0.001190
vn 0.000000 1.000000 0.000000
vn -0.014680 0.999786 -0.012360
vn -0.015992 0.999786 -0.012696
vn -0.033663 0.999329 -0.007813
vn 0.005219 0.999908 -0.011811
vn 0.039034 0.999145 -0.001068
vn -0.035982 0.999268 0.004975
vn -0.036043 0.999237 0.006928
vn -0.024202 0.999664 -0.006409
vn 0.006714 0.999817 0.017152
vn -0.006409 0.999664 0.024690
vn -0.057834 0.997894 0.028932
vn 0.000000 1.000000 0.000000
vn 0.003998 0.999969 -0.003937
vn -0.003510 0.999969 -0.004059
vn 0.000000 0.999969 -0.001465
# 76 uv coords
vt 0.487880 0.502367
vt 0.802263 0.501865
vt 0.655590 0.504088
vt 0.340890 0.502374
vt 0.168151 0.512665
vt 0.482931 0.260083
vt 0.808476 0.257837
vt 0.648796 0.259238
vt 0.345396 0.266493
vt 0.162440 0.263326
vt 0.491659 0.736548
vt 0.655777 0.735693
vt 0.348477 0.741351
vt 0.172893 0.743065
vt 2.556519 0.485448
vt 2.552443 0.244074
vt 2.556482 0.719985
vt 2.412330 0.486365
vt 2.405778 0.245782
vt 2.413189 0.720023
vt 2.230007 0.486418
vt 2.219668 0.239256
vt 2.064458 0.485790
vt 2.064304 0.244322
vt 1.485035 0.806255
vt 1.800724 0.813688
vt 1.648569 0.808046
vt 1.343054 0.803850
vt 1.184773 0.812333
vt 2.957575 0.488755
vt 2.960204 0.241623
vt 2.963423 0.720412
vt 2.556578 0.007751
vt 2.963553 0.007810
vt 2.963377 0.963116
vt 2.556459 0.962995
vt 2.412992 0.007821
vt 2.413218 0.890309
vt 2.230631 0.007842
vt 2.242887 0.720088
vt 2.008133 0.485767
vt 2.007753 0.244220
vt 2.008000 0.007785
vt 0.008040 0.513460
vt 0.007751 0.266378
vt 0.163741 0.029654
vt 0.342568 0.030323
vt 0.468821 0.017266
vt 0.350780 0.984349
vt 0.175225 0.986057
vt 0.016189 0.744926
vt 0.008924 0.032485
vt 0.652114 0.026299
vt 0.495882 0.982972
vt 0.018551 0.987591
vt 0.764580 0.007751
vt 0.967410 0.259650
vt 0.968967 0.500558
vt 0.736044 0.738001
vt 0.967948 0.024785
vt 1.356892 0.013835
vt 1.502046 0.016448
vt 1.663757 0.183720
vt 1.467680 0.960863
vt 1.341194 0.969702
vt 1.181554 0.010636
vt 1.808121 0.332824
vt 1.650627 0.973994
vt 1.162618 0.964218
vt 1.010252 0.800083
vt 1.024961 0.007751
vt 1.946187 0.475148
vt 1.966757 0.815901
vt 1.762670 0.960699
vt 1.007753 0.962814
vt 1.965716 0.977951
# 49 polygons
usemtl initialShadingGroup
s 1
g polySurface1 Scene Scene_polySurface1SmoothProxyGroup
f 59/73/1 5/76/2 15/74/3 61/26/4
f 58/25/5 3/64/6 23/65/7 63/28/8
f 33/42/9 10/43/10 54/39/11 55/22/12 57/24/13
f 60/70/14 13/71/15 29/66/16 64/29/17
f 19/3/18 16/2/19 7/58/20 20/59/21 40/12/22
f 18/53/23 15/56/3 34/7/24 35/8/25
f 1/1/26 19/3/18 40/12/22 39/11/27
f 3/48/6 18/53/23 35/8/25 30/6/28
f 27/46/29 23/47/7 36/9/30 37/10/31
f 26/5/32 22/4/33 41/13/34 42/14/35
f 31/45/36 14/52/37 27/46/29 37/10/31
f 38/51/38 2/44/39 26/5/32 42/14/35
f 46/33/40 14/34/37 31/31/36 47/16/41
f 9/41/42 33/42/9 57/24/13 56/23/43
f 2/30/39 38/32/38 48/17/44 44/15/45
f 39/11/27 40/12/22 20/59/21 8/54/46
f 52/20/47 48/17/44 45/36/48 50/38/49
f 62/27/50 21/63/51 17/67/52 61/26/4
f 58/25/5 12/62/53 21/63/51 62/27/50
f 29/66/16 25/61/54 63/28/8 64/29/17
f 49/18/55 44/15/45 48/17/44 52/20/47
f 11/37/56 46/33/40 47/16/41 51/19/57
f 50/38/49 43/40/58 52/20/47
f 53/21/59 49/18/55 52/20/47 43/40/58
f 43/40/58 9/41/42 56/23/43 53/21/59
f 51/19/57 49/18/55 53/21/59 55/22/12
f 55/22/12 53/21/59 56/23/43 57/24/13
f 36/9/30 30/6/28 1/1/26 22/4/33
f 34/7/24 32/57/60 7/58/20 16/2/19
f 34/7/24 16/2/19 19/3/18 35/8/25
f 35/8/25 19/3/18 1/1/26 30/6/28
f 36/9/30 22/4/33 26/5/32 37/10/31
f 37/10/31 26/5/32 2/44/39 31/45/36
f 2/30/39 44/15/45 47/16/41 31/31/36
f 47/16/41 44/15/45 49/18/55 51/19/57
f 23/47/7 3/48/6 30/6/28 36/9/30
f 15/56/3 5/60/2 32/57/60 34/7/24
f 54/39/11 11/37/56 51/19/57 55/22/12
f 17/67/52 6/72/61 59/73/1 61/26/4
f 25/61/54 12/62/53 58/25/5 63/28/8
f 15/74/3 18/68/23 62/27/50 61/26/4
f 18/68/23 3/64/6 58/25/5 62/27/50
f 23/65/7 27/69/29 64/29/17 63/28/8
f 14/75/37 60/70/14 64/29/17 27/69/29
f 22/4/33 1/1/26 39/11/27 41/13/34
f 41/13/34 39/11/27 8/54/46 24/49/62
f 41/13/34 24/49/62 28/50/63 42/14/35
f 42/14/35 28/50/63 4/55/64 38/51/38
f 4/35/64 45/36/48 48/17/44 38/32/38
# h3dt: 64 76 64 49
