# author: headus 3D tools
#  using: ply2obj v1.12
#   from: uvlayout v2.11.02b
# 99 vertices
v -49.27628 8.92418 -1.95331
v -49.27628 11.68619 -2.04916
v -49.77689 11.08478 -50.72679
v -0.65697 11.68619 -51.10150
v -0.65697 8.92418 -7.34354
v -0.65697 11.68619 -7.34354
v -1.14306 11.68619 -2.48215
v -49.27628 11.63850 -99.94569
v -49.27628 8.88625 -100.02051
v -0.65697 11.68619 -99.72074
v -0.65697 8.92418 -99.72074
v -97.89560 11.68619 -51.10150
v -97.89560 8.92418 -50.81706
v -97.40950 8.92418 -2.48215
v -97.89560 8.92418 -2.96819
v -0.65697 8.92418 -2.96819
v -1.14306 8.92418 -2.48215
v -0.65697 11.68619 -2.96819
v -97.40950 11.68619 -2.48215
v -97.89560 11.68619 -2.96819
v -40.06855 11.68619 -1.99735
v -40.06855 8.92418 -1.88239
v -40.06855 8.68615 -99.88833
v -40.06855 11.36637 -99.87442
v -40.62422 11.42053 -51.44337
v -29.87140 11.68619 -2.27075
v -29.87140 8.92418 -2.22802
v -29.87140 8.79521 -99.72074
v -29.87140 11.58542 -99.72074
v -30.61588 11.61998 -51.24602
v -20.31155 11.68619 -2.22511
v -20.31155 8.92418 -2.16427
v -20.31155 8.92418 -99.72074
v -20.31155 11.68619 -99.72074
v -21.27538 12.12539 -52.27695
v -10.32683 11.68619 -3.52318
v -10.32683 8.92418 -3.65035
v -10.32683 8.92418 -99.72074
v -10.32683 11.68619 -99.72074
v -10.32683 12.87889 -51.10150
v -60.03797 8.92418 -3.42113
v -60.03797 11.68619 -3.31891
v -68.40905 11.90708 -80.58798
v -60.03797 8.92418 -88.95903
v -60.19247 11.22819 -51.58802
v -70.02270 8.92418 -1.90487
v -70.02270 11.68619 -1.78438
v -70.02270 9.13064 -78.97432
v -69.63257 12.36353 -51.00948
v -79.79499 8.92418 -1.88205
v -79.79499 11.68619 -1.75216
v -79.79499 8.92418 -69.20204
v -79.47429 10.98262 -50.55522
v -90.20458 8.92418 -2.48215
v -90.20458 11.68619 -2.48215
v -90.20458 8.92418 -58.79243
v -90.20458 11.68619 -51.10150
v -49.46812 11.11229 -20.34371
v -40.06855 12.15804 -20.30903
v -29.87140 12.14283 -20.30903
v -20.53532 11.34975 -20.02656
v -10.32683 11.27943 -20.30903
v -0.65697 11.68619 -20.30906
v -97.89560 8.92418 -20.30905
v -97.91858 12.37846 -20.60973
v -90.27694 14.16572 -21.25617
v -79.88669 12.63909 -20.84880
v -70.11113 12.44292 -20.82959
v -60.03797 11.68619 -20.30903
v -49.18915 12.75162 -35.74550
v -40.30398 13.25373 -36.29345
v -30.10295 12.17135 -35.56381
v -20.44501 11.58384 -35.27523
v -10.40706 11.74013 -35.18940
v -0.73804 11.74109 -35.18849
v -97.89560 11.46506 -35.27523
v -89.54593 11.89472 -34.51633
v -79.33483 12.34209 -34.74502
v -71.25714 13.15900 -35.27523
v -58.73141 13.17082 -36.60466
v -0.65697 11.68619 -64.61346
v -49.26559 11.93626 -62.38752
v -40.06855 11.05185 -63.54686
v -29.87140 11.95719 -64.73523
v -20.31155 11.98374 -65.87880
v -10.06976 12.01193 -66.20871
v -60.03309 11.68278 -63.73548
v -70.02270 11.68619 -64.61346
v -79.79499 11.68619 -64.61346
v -49.27628 11.03597 -80.58796
v -40.06855 11.96485 -80.58796
v -29.87140 10.75185 -80.58796
v -20.02807 10.36019 -78.90913
v -10.32683 11.35346 -80.58796
v -60.03797 11.90708 -80.58798
v -0.65697 11.68619 -80.58798
v -79.98433 11.74702 -69.01271
v -90.38789 11.68619 -58.60917
v -59.92033 11.78792 -89.17649
# 129 normals
vn 0.012696 0.033053 0.999298
vn 0.012696 0.033053 0.999298
vn -0.071385 0.016847 0.997223
vn -0.071385 0.016847 0.997223
vn 0.023408 0.999695 0.001648
vn 0.052646 0.998413 0.015351
vn -0.000244 0.999908 0.011140
vn 0.008057 0.999878 -0.011475
vn -0.024049 0.999695 0.000763
vn -0.060459 0.997467 -0.035128
vn -0.041476 0.996826 -0.067723
vn -0.011689 0.999878 -0.008332
vn -0.015351 0.999817 -0.009766
vn -0.025148 0.998047 -0.056919
vn 0.004700 0.998901 -0.046542
vn -0.003815 -0.999969 -0.000061
vn -0.007569 -0.999969 0.000916
vn -0.006195 -0.999969 0.000732
vn -0.005860 -0.999969 -0.000397
vn 0.000000 -1.000000 0.000000
vn 0.000000 -1.000000 0.000000
vn 0.000000 -1.000000 0.000000
vn 0.000000 -1.000000 0.000000
vn 0.000000 -1.000000 0.000000
vn 0.000000 -1.000000 0.000000
vn -0.707013 0.000000 0.707074
vn -0.707013 0.000000 0.707074
vn -0.707013 0.000000 0.707074
vn -0.707013 0.000000 0.707074
vn 0.707013 0.000000 0.707074
vn 0.707013 0.000000 0.707074
vn 0.707013 0.000000 0.707074
vn 0.707013 0.000000 0.707074
vn -0.037692 -0.013795 0.999115
vn 0.000000 0.000000 1.000000
vn 0.000000 0.000000 1.000000
vn -0.037692 -0.013795 0.999115
vn -0.017121 0.999786 0.008606
vn -0.032442 0.999054 0.025697
vn -0.039584 0.999084 -0.010407
vn -0.008942 0.999939 -0.004578
vn -0.119362 -0.022768 0.992523
vn 0.014924 -0.017213 0.999725
vn 0.014924 -0.017213 0.999725
vn -0.119362 -0.022768 0.992523
vn 0.012818 0.023714 0.999634
vn 0.012818 0.023714 0.999634
vn 0.048617 0.998627 -0.018586
vn -0.001556 0.999420 -0.031343
vn -0.002289 -0.999969 0.001587
vn -0.002350 -0.999969 0.001587
vn -0.006043 0.999969 0.001404
vn 0.012238 0.999847 0.010102
vn 0.005951 -0.999969 0.001221
vn 0.005951 -0.999969 0.001221
vn -0.009278 0.999298 -0.034395
vn 0.068211 0.002960 0.997650
vn 0.068211 0.002960 0.997650
vn 0.011781 0.999664 0.021821
vn -0.033236 0.999298 0.010804
vn 0.003235 -0.999969 0.000244
vn 0.003388 -0.999969 0.000275
vn -0.026064 0.998077 -0.054721
vn -0.006867 0.999298 0.034640
vn 0.006836 0.999939 0.006775
vn 0.005097 0.999023 -0.042453
vn 0.071385 0.997375 0.002960
vn 0.021547 0.999359 0.026094
vn 0.007477 -0.019929 0.999756
vn 0.007477 -0.019929 0.999756
vn -0.029238 0.997070 -0.069920
vn 0.023561 0.998871 -0.041110
vn 0.017701 0.999756 0.010682
vn -0.004883 0.999969 0.005371
vn 0.040133 0.999084 -0.008484
vn -0.005768 -0.999969 -0.001221
vn -0.000732 -0.999969 -0.001282
vn 0.078221 -0.042575 0.996002
vn 0.078221 -0.042575 0.996002
vn 0.010529 0.999878 -0.010956
vn -0.025484 0.999420 -0.018556
vn -0.003113 0.999817 0.017671
vn 0.005158 -0.999969 -0.000671
vn 0.007386 -0.999969 -0.001007
vn -0.031527 -0.034029 0.998901
vn -0.031527 -0.034029 0.998901
vn -0.039462 0.997070 -0.064304
vn 0.032930 0.999023 0.026521
vn 0.000000 -1.000000 0.000000
vn 0.000000 -1.000000 0.000000
vn 0.000000 -1.000000 0.000000
vn 0.000000 -1.000000 0.000000
vn 0.000000 -1.000000 0.000000
vn 0.000000 -1.000000 0.000000
vn -0.013306 0.999847 -0.009492
vn -0.026399 0.999573 0.011964
vn -0.024019 0.998627 0.045932
vn -0.007081 0.999664 0.023866
vn 0.020387 0.999664 0.014802
vn 0.039462 0.998993 0.019990
vn 0.022005 0.999695 -0.008973
vn 0.020631 0.999756 0.001312
vn -0.008942 0.999817 -0.016664
vn -0.008668 0.999939 0.000000
vn -0.020295 0.999695 -0.011658
vn -0.020295 0.999695 -0.011658
vn -0.020295 0.999695 -0.011658
vn -0.020631 0.999756 0.002136
vn -0.124000 0.992187 -0.006989
vn -0.113013 0.989898 0.085424
vn -0.113013 0.989898 0.085424
vn -0.007325 0.996063 0.088232
vn -0.010316 0.999847 0.011750
vn 0.039523 0.996918 0.067692
vn 0.041293 0.998810 0.024721
vn 0.023714 0.999084 0.033297
vn 0.018495 0.998596 0.049533
vn 0.033236 0.999359 0.001984
vn 0.037875 0.998199 0.044833
vn 0.043246 0.998718 -0.025667
vn 0.007355 0.999969 0.000275
vn 0.010651 0.999939 -0.000122
vn 0.019014 0.999786 -0.007477
vn -0.010590 0.999908 -0.008179
vn 0.011323 0.999756 0.018495
vn 0.010193 0.999939 0.003296
vn 0.013245 0.999847 0.009278
vn 0.024141 0.999023 0.036593
vn -0.021577 0.998627 0.047091
# 176 uv coords
vt 0.145406 0.695849
vt 0.145818 0.708883
vt 0.254819 0.494675
vt 0.253935 0.481749
vt 0.207785 0.581623
vt 0.209220 0.498216
vt 0.257651 0.495601
vt 0.256989 0.518091
vt 0.255842 0.582530
vt 0.208202 0.484437
vt 0.256596 0.480434
vt 0.205984 0.655522
vt 0.253953 0.656505
vt 0.128655 0.013863
vt 0.176015 0.005848
vt 0.252584 0.458286
vt 0.204488 0.734690
vt 0.252813 0.735563
vt 0.204780 0.809848
vt 0.251651 0.802690
vt 0.202362 0.881310
vt 0.250400 0.882040
vt 0.248958 0.977076
vt 0.200937 0.976353
vt 0.142282 0.798232
vt 0.142953 0.709965
vt 0.181352 0.708306
vt 0.180963 0.802351
vt 0.142462 0.694941
vt 0.181036 0.694481
vt 0.139205 0.871091
vt 0.180762 0.869191
vt 0.137604 0.608288
vt 0.128655 0.457008
vt 0.164453 0.415205
vt 0.135654 0.949652
vt 0.173812 0.951366
vt 0.171233 0.988588
vt 0.371836 0.514854
vt 0.368604 0.448229
vt 0.420611 0.447325
vt 0.422433 0.516307
vt 0.372268 0.354398
vt 0.423991 0.352341
vt 0.367702 0.597155
vt 0.421097 0.595113
vt 0.371663 0.340815
vt 0.423403 0.338459
vt 0.418445 0.664997
vt 0.417198 0.686834
vt 0.366269 0.634422
vt 0.342106 0.062733
vt 0.388059 0.005848
vt 0.649123 0.792152
vt 0.649123 0.721568
vt 0.703373 0.721568
vt 0.703373 0.792152
vt 0.649123 0.626738
vt 0.703373 0.626738
vt 0.649123 0.870902
vt 0.703373 0.870902
vt 0.649123 0.613005
vt 0.703373 0.613005
vt 0.703373 0.939715
vt 0.649123 0.939715
vt 0.649123 0.254386
vt 0.703373 0.254386
vt 0.703373 0.990534
vt 0.649123 0.990534
vt 0.719422 0.595372
vt 0.721461 0.523452
vt 0.771374 0.517966
vt 0.781833 0.598930
vt 0.716374 0.429072
vt 0.766337 0.433567
vt 0.731026 0.673052
vt 0.778225 0.674256
vt 0.717626 0.415572
vt 0.767620 0.419703
vt 0.780993 0.734563
vt 0.731595 0.740648
vt 0.804693 0.042861
vt 0.864281 0.005848
vt 0.783870 0.818253
vt 0.742312 0.819678
vt 0.785907 0.860879
vt 0.271930 0.698056
vt 0.271930 0.618809
vt 0.329634 0.618809
vt 0.329634 0.698056
vt 0.271930 0.531149
vt 0.329634 0.531149
vt 0.271930 0.773223
vt 0.329634 0.773223
vt 0.271930 0.517421
vt 0.329634 0.517421
vt 0.329634 0.832483
vt 0.271930 0.832483
vt 0.271930 0.061403
vt 0.329634 0.061403
vt 0.329634 0.919603
vt 0.271930 0.919603
vt 0.329634 0.989040
vt 0.271930 0.989040
vt 0.051638 0.597520
vt 0.051638 0.675794
vt 0.005848 0.675794
vt 0.005848 0.597520
vt 0.051638 0.506562
vt 0.005848 0.506562
vt 0.051638 0.751171
vt 0.005848 0.751171
vt 0.051638 0.492832
vt 0.005848 0.492832
vt 0.051638 0.810344
vt 0.005848 0.810344
vt 0.005848 0.005848
vt 0.051638 0.005848
vt 0.051638 0.897989
vt 0.005848 0.897989
vt 0.051638 0.994015
vt 0.005848 0.994015
vt 0.115034 0.595444
vt 0.115034 0.673134
vt 0.064327 0.673134
vt 0.064327 0.595444
vt 0.115034 0.505133
vt 0.064327 0.505133
vt 0.115034 0.750039
vt 0.064327 0.750039
vt 0.115034 0.491406
vt 0.064327 0.491406
vt 0.115034 0.813710
vt 0.064327 0.813710
vt 0.064327 0.005848
vt 0.115034 0.005848
vt 0.115034 0.895583
vt 0.064327 0.895583
vt 0.115034 0.991073
vt 0.064327 0.991073
vt 0.989167 0.593051
vt 0.989167 0.668822
vt 0.941521 0.668822
vt 0.941521 0.593051
vt 0.989167 0.504011
vt 0.941521 0.504011
vt 0.989167 0.750115
vt 0.941521 0.750115
vt 0.989167 0.490289
vt 0.941521 0.490289
vt 0.989167 0.817549
vt 0.941521 0.817549
vt 0.941521 0.005848
vt 0.989167 0.005848
vt 0.989167 0.889656
vt 0.941521 0.889656
vt 0.989167 0.989021
vt 0.941521 0.989021
vt 0.927730 0.595184
vt 0.927730 0.670039
vt 0.877193 0.670039
vt 0.877193 0.595184
vt 0.927730 0.509256
vt 0.877193 0.509256
vt 0.927730 0.751959
vt 0.877193 0.751959
vt 0.927730 0.495528
vt 0.877193 0.495528
vt 0.927730 0.823417
vt 0.877193 0.823417
vt 0.877193 0.014620
vt 0.927730 0.014620
vt 0.927730 0.891795
vt 0.877193 0.891795
vt 0.927730 0.991121
vt 0.877193 0.991121
# 77 polygons
usemtl initialShadingGroup
s 1
g Bedroom BedroomSmoothProxyGroup
f 22/113/1 21/109/2 2/110/3 1/114/4
s 2
f 95/84/5 99/86/6 43/85/7
f 57/37/8 12/36/9 76/31/10 77/32/11
f 70/107/12 71/106/13 25/111/14 3/112/15
s 5
f 44/99/16 9/100/17 1/96/18 41/95/19
f 38/14/20 11/15/21 5/16/22 16/11/23 17/4/24 37/10/25
s off
f 15/29/26 14/1/27 19/2/28 20/26/29
f 17/4/30 16/11/31 18/7/32 7/3/33
s 1
f 55/27/34 19/2/35 14/1/36 54/30/37
s 2
f 10/23/38 39/24/39 94/21/40 96/22/41
s 1
f 7/3/42 36/6/43 37/10/44 17/4/45
f 27/131/46 26/127/47 21/128/2 22/132/1
s 2
f 71/125/13 72/124/48 30/129/49 25/130/14
s 5
f 1/114/18 9/117/17 23/118/50 22/113/51
s 2
f 3/112/15 25/111/14 83/115/52 82/116/53
s 5
f 22/132/51 23/135/50 28/136/54 27/131/55
s 2
f 25/130/14 30/129/49 84/133/56 83/134/52
s 1
f 32/149/57 31/145/58 26/146/47 27/150/46
s 2
f 72/143/48 73/142/59 35/147/60 30/148/49
s 5
f 27/150/55 28/153/54 33/154/61 32/149/62
s 2
f 30/148/49 35/147/60 85/151/63 84/152/56
s 1
f 37/167/44 36/163/43 31/164/58 32/168/57
s 2
f 73/161/59 74/160/64 40/165/65 35/166/60
s 5
f 32/168/62 33/171/61 38/172/20 37/167/25
s 2
f 35/166/60 40/165/65 86/169/66 85/170/63
f 4/18/67 40/17/65 74/12/64 75/13/68
s 1
f 2/92/3 42/91/69 41/95/70 1/96/4
s 2
f 49/76/71 45/77/72 87/80/73 88/81/74
f 45/93/72 80/87/75 70/90/12 3/94/15
s 5
f 48/82/76 44/83/16 41/79/19 46/78/77
s 1
f 42/75/69 47/74/78 46/78/79 41/79/70
s 2
f 49/76/71 79/70/80 80/73/75 45/77/72
f 53/60/81 49/61/71 88/64/74 89/65/82
s 5
f 50/62/83 52/66/84 48/67/76 46/63/77
s 1
f 47/59/78 51/58/85 50/62/86 46/63/79
s 2
f 53/60/81 78/54/87 79/57/80 49/61/71
f 57/37/8 98/38/88 12/36/9
s 5
f 56/52/89 52/53/84 50/48/83 54/47/90
s 1
f 51/44/85 55/43/34 54/47/37 50/48/86
s 2
f 53/46/81 57/45/8 77/39/11 78/42/87
s 5
f 64/33/91 13/34/92 56/35/89 54/30/90 14/1/93 15/29/94
s 2
f 2/110/95 21/109/96 59/105/97 58/108/98
f 21/128/96 26/127/99 60/123/100 59/126/97
f 26/146/99 31/145/101 61/141/102 60/144/100
f 31/164/101 36/163/103 62/159/104 61/162/102
f 62/5/104 36/6/103 7/3/105 18/7/106 6/8/107 63/9/108
f 65/25/109 20/26/110 19/2/111 55/27/112 66/28/113
f 66/40/113 55/43/112 51/44/114 67/41/115
f 67/55/115 51/58/114 47/59/116 68/56/117
f 68/71/117 47/74/116 42/75/118 69/72/119
f 69/88/119 42/91/118 2/92/95 58/89/98
f 58/108/98 59/105/97 71/106/13 70/107/12
f 59/126/97 60/123/100 72/124/48 71/125/13
f 60/144/100 61/141/102 73/142/59 72/143/48
f 61/162/102 62/159/104 74/160/64 73/161/59
f 74/12/64 62/5/104 63/9/108 75/13/68
f 76/31/10 65/25/109 66/28/113 77/32/11
f 77/39/11 66/40/113 67/41/115 78/42/87
f 78/54/87 67/55/115 68/56/117 79/57/80
f 79/70/80 68/71/117 69/72/119 80/73/75
f 80/87/75 69/88/119 58/89/98 70/90/12
f 45/93/72 3/94/15 82/97/53 87/98/73
f 86/19/66 40/17/65 4/18/67 81/20/120
f 82/116/53 83/115/52 91/119/121 90/120/122
f 83/134/52 84/133/56 92/137/123 91/138/121
f 84/152/56 85/151/63 93/155/124 92/156/123
f 85/170/63 86/169/66 94/173/40 93/174/124
f 88/81/74 87/80/73 95/84/5 43/85/7
f 89/49/82 97/50/125 98/51/88 57/45/8 53/46/81
f 87/98/73 82/97/53 90/101/122 95/102/5
f 94/21/40 86/19/66 81/20/120 96/22/41
f 91/119/121 24/121/126 8/122/127 90/120/122
f 92/137/123 29/139/128 24/140/126 91/138/121
f 93/155/124 34/157/129 29/158/128 92/156/123
f 94/173/40 39/175/39 34/176/129 93/174/124
f 88/64/74 43/68/7 97/69/125 89/65/82
f 90/101/122 8/103/127 99/104/6 95/102/5
# h3dt: 99 176 129 77
