# author: headus 3D tools
#  using: ply2obj v1.12
#   from: uvlayout v2.11.02b
# 8 vertices
v 0.000000 0.322172 -6.773058
v 0.000000 39.825012 -6.773058
v 4.947934 39.825012 -1.825124
v 4.947934 0.322172 -1.825124
v 0.494744 0.322172 -1.825124
v 0.000000 0.322172 -2.319867
v 0.000000 39.825012 -2.319867
v 0.494744 39.825012 -1.825124
# 12 normals
vn -1.000000 0.000000 0.000000
vn -1.000000 0.000000 0.000000
vn -1.000000 0.000000 0.000000
vn -1.000000 0.000000 0.000000
vn 0.000000 0.000000 1.000000
vn 0.000000 0.000000 1.000000
vn 0.000000 0.000000 1.000000
vn 0.000000 0.000000 1.000000
vn -0.707044 0.000000 0.707044
vn -0.707044 0.000000 0.707044
vn -0.707044 0.000000 0.707044
vn -0.707044 0.000000 0.707044
# 12 uv coords
vt 0.273428 0.005797
vt 0.273428 0.991417
vt 0.162319 0.991417
vt 0.162319 0.005797
vt 0.005797 0.005797
vt 0.023253 0.005797
vt 0.023253 0.991417
vt 0.005797 0.991417
vt 0.148791 0.005797
vt 0.148791 0.991417
vt 0.037681 0.991417
vt 0.037681 0.005797
# 3 polygons
usemtl initialShadingGroup
s off
g polySurface14 polySurface15 polySurface2 polySurface3 polySurface5 polySurface8 Scene Scene_polySurface2_polySurface3_polySurface5_polySurface8_polySurface14_polySurface15SmoothProxyGroup
f 6/1/1 7/2/2 2/3/3 1/4/4
f 4/9/5 3/10/6 8/11/7 5/12/8
f 6/5/9 5/6/10 8/7/11 7/8/12
# h3dt: 8 12 12 3
